{"accessors":[{"bufferView":0,"byteOffset":0,"componentType":5126,"count":800,"max":[37.500999450683594,37.427001953125,2038.5999755859375],"min":[-37.500999450683594,-37.427001953125,0.0],"type":"VEC3"},{"bufferView":1,"byteOffset":0,"componentType":5121,"count":800,"normalized":true,"type":"VEC4"},{"bufferView":2,"byteOffset":0,"componentType":5125,"count":2400,"type":"SCALAR"},{"bufferView":3,"byteOffset":0,"componentType":5126,"count":5700,"max":[103.98651123046875,103.78131866455078,1538.5999755859375],"min":[-103.98651123046875,-103.78131866455078,500.0000915527344],"type":"VEC3"},{"bufferView":4,"byteOffset":0,"componentType":5121,"count":5700,"normalized":true,"type":"VEC4"},{"bufferView":5,"byteOffset":0,"componentType":5125,"count":30600,"type":"SCALAR"},{"bufferView":6,"byteOffset":0,"componentType":5126,"count":19950,"max":[103.98651123046875,103.78131866455078,1423.2000732421875],"min":[-103.98651123046875,-103.78131866455078,615.4000244140625],"type":"VEC3"},{"bufferView":7,"byteOffset":0,"componentType":5121,"count":19950,"normalized":true,"type":"VEC4"},{"bufferView":8,"byteOffset":0,"componentType":5125,"count":107100,"type":"SCALAR"}],"asset":{"generator":"VTK","version":"2.0"},"bufferViews":[{"buffer":0,"byteLength":9600,"byteOffset":0,"target":34962},{"buffer":1,"byteLength":3200,"byteOffset":0,"target":34962},{"buffer":2,"byteLength":9600,"byteOffset":0,"target":34963},{"buffer":3,"byteLength":68400,"byteOffset":0,"target":34962},{"buffer":4,"byteLength":22800,"byteOffset":0,"target":34962},{"buffer":5,"byteLength":122400,"byteOffset":0,"target":34963},{"buffer":6,"byteLength":239400,"byteOffset":0,"target":34962},{"buffer":7,"byteLength":79800,"byteOffset":0,"target":34962},{"buffer":8,"byteLength":428400,"byteOffset":0,"target":34963}],"buffers":[{"byteLength":9600,"uri":"data:application/octet-stream;base64,"},{"byteLength":3200,"uri":"data:application/octet-stream;base64,"},{"byteLength":9600,"uri":"data:application/octet-stream;base64,"},{"byteLength":68400,"uri":"data:application/octet-stream;base64,"},{"byteLength":22800,"uri":"data:application/octet-stream;base64,"},{"byteLength":122400,"uri":"data:application/octet-stream;base64,"},{"byteLength":239400,"uri":"data:application/octet-stream;base64,"},{"byteLength":79800,"uri":"data:application/octet-stream;base64,"},{"byteLength":428400,"uri":"data:application/octet-stream;base64,"}],"cameras":[{"orthographic":{"xmag":2303.8039439849217,"ymag":1029.8538316703537,"zfar":2771.257133296001,"znear":364.49410092450023},"type":"orthographic"}],"materials":[{"pbrMetallicRoughness":{"baseColorFactor":[1.0,1.0,1.0,1.0],"metallicFactor":0.1,"roughnessFactor":0.9803921568627451}},{"pbrMetallicRoughness":{"baseColorFactor":[1.0,1.0,1.0,1.0],"metallicFactor":0.1,"roughnessFactor":0.9803921568627451}},{"pbrMetallicRoughness":{"baseColorFactor":[1.0,1.0,1.0,1.0],"metallicFactor":0.1,"roughnessFactor":0.9803921568627451}}],"meshes":[{"name":"mesh0","primitives":[{"attributes":{"COLOR_0":1,"POSITION":0},"indices":2,"material":0,"mode":4}]},{"name":"mesh1","primitives":[{"attributes":{"COLOR_0":4,"POSITION":3},"indices":5,"material":1,"mode":4}]},{"name":"mesh2","primitives":[{"attributes":{"COLOR_0":7,"POSITION":6},"indices":8,"material":2,"mode":4}]}],"nodes":[{"mesh":0,"name":"mesh0"},{"mesh":1,"name":"mesh1"},{"mesh":2,"name":"mesh2"},{"camera":0,"matrix":[-0.4539828257503865,-0.0555676217510421,0.8892760163957122,0.0,0.3538307586561526,0.9047405005482648,0.23716749544675406,0.0,-0.8177428618780511,0.4223231772950755,-0.3910751152488311,-0.0,-842.1556196261906,434.93114234053104,-402.75020590993336,1.0],"name":"Camera Node"},{"children":[0,1,2,3],"name":"Renderer Node"}],"scene":0,"scenes":[{"name":"Layer 0","nodes":[4]}]}